<mxfile host="65bd71144e" scale="1" border="10">
    <diagram id="-rriOPSDnHkLpZKLwRpb" name="Page-1">
        <mxGraphModel dx="3001" dy="2512" grid="1" gridSize="10" guides="1" tooltips="1" connect="1" arrows="1" fold="1" page="1" pageScale="1" pageWidth="850" pageHeight="1100" background="#FFFFFF" math="0" shadow="0">
            <root>
                <mxCell id="0"/>
                <mxCell id="1" parent="0"/>
                <mxCell id="595" value="" style="edgeStyle=none;html=1;endArrow=none;endFill=0;" parent="1" target="600" edge="1">
                    <mxGeometry x="-0.4777" y="20" relative="1" as="geometry">
                        <mxPoint as="offset"/>
                        <mxPoint x="-2067.392313791986" y="-1690.5489255167943" as="sourcePoint"/>
                    </mxGeometry>
                </mxCell>
                <mxCell id="599" style="edgeStyle=none;html=1;exitX=1;exitY=0.25;exitDx=0;exitDy=0;endArrow=none;endFill=0;" parent="1" source="600" edge="1">
                    <mxGeometry relative="1" as="geometry">
                        <mxPoint x="-1960" y="-1640" as="targetPoint"/>
                        <Array as="points">
                            <mxPoint x="-1990" y="-1640"/>
                        </Array>
                    </mxGeometry>
                </mxCell>
                <mxCell id="600" value="&lt;font color=&quot;#ff0000&quot;&gt;CONTENUTO&lt;br&gt;MULTIMEDIALE&lt;/font&gt;" style="rounded=0;whiteSpace=wrap;html=1;strokeColor=#FF0000;" parent="1" vertex="1">
                    <mxGeometry x="-2127.61" y="-1650.4299999999998" width="120" height="40" as="geometry"/>
                </mxCell>
                <mxCell id="601" value="" style="endArrow=oval;html=1;fillStyle=auto;strokeWidth=1;startSize=6;endSize=6;fillColor=#000000;startArrow=none;startFill=0;endFill=0;" parent="1" source="600" edge="1">
                    <mxGeometry width="50" height="50" relative="1" as="geometry">
                        <mxPoint x="-2041.07" y="-1673.9933333333333" as="sourcePoint"/>
                        <mxPoint x="-2085.13" y="-1670.6499999999999" as="targetPoint"/>
                    </mxGeometry>
                </mxCell>
                <mxCell id="602" value="&lt;font color=&quot;#ff0000&quot;&gt;titolo&lt;/font&gt;" style="edgeLabel;html=1;align=center;verticalAlign=middle;resizable=0;points=[];" parent="601" vertex="1" connectable="0">
                    <mxGeometry x="0.4791" y="1" relative="1" as="geometry">
                        <mxPoint x="-21" y="-10" as="offset"/>
                    </mxGeometry>
                </mxCell>
                <mxCell id="603" value="" style="endArrow=oval;html=1;fillStyle=auto;strokeWidth=1;startSize=6;endSize=6;fillColor=#000000;startArrow=none;startFill=0;endFill=0;exitX=0.117;exitY=1.013;exitDx=0;exitDy=0;exitPerimeter=0;" parent="1" source="600" edge="1">
                    <mxGeometry width="50" height="50" relative="1" as="geometry">
                        <mxPoint x="-2109.9020980926425" y="-1579.4299999999998" as="sourcePoint"/>
                        <mxPoint x="-2147.42" y="-1600" as="targetPoint"/>
                    </mxGeometry>
                </mxCell>
                <mxCell id="604" value="LIS" style="edgeLabel;html=1;align=center;verticalAlign=middle;resizable=0;points=[];" parent="603" vertex="1" connectable="0">
                    <mxGeometry x="0.4791" y="1" relative="1" as="geometry">
                        <mxPoint x="-29" y="2" as="offset"/>
                    </mxGeometry>
                </mxCell>
                <mxCell id="605" value="" style="endArrow=oval;html=1;fillStyle=auto;strokeWidth=1;startSize=6;endSize=6;fillColor=#000000;startArrow=none;startFill=0;endFill=1;strokeColor=#FF0000;" parent="1" edge="1">
                    <mxGeometry width="50" height="50" relative="1" as="geometry">
                        <mxPoint x="-1995.13" y="-1630.65" as="sourcePoint"/>
                        <mxPoint x="-2095.13" y="-1660.65" as="targetPoint"/>
                        <Array as="points">
                            <mxPoint x="-1995.13" y="-1660.65"/>
                        </Array>
                    </mxGeometry>
                </mxCell>
                <mxCell id="620" value="" style="endArrow=none;html=1;fontSize=11;exitX=0.193;exitY=1.011;exitDx=0;exitDy=0;exitPerimeter=0;entryX=0;entryY=0;entryDx=0;entryDy=0;strokeColor=#FF0000;" parent="1" target="621" edge="1">
                    <mxGeometry width="50" height="50" relative="1" as="geometry">
                        <mxPoint x="-2028.2299999999996" y="-1610.4299999999998" as="sourcePoint"/>
                        <mxPoint x="-2011.42" y="-1602" as="targetPoint"/>
                    </mxGeometry>
                </mxCell>
                <mxCell id="621" value="" style="ellipse;whiteSpace=wrap;html=1;aspect=fixed;fontSize=11;strokeColor=#FF0000;" parent="1" vertex="1">
                    <mxGeometry x="-2011.07" y="-1602.2" width="5.92" height="5.92" as="geometry"/>
                </mxCell>
                <mxCell id="622" value="&lt;font color=&quot;#ff0000&quot;&gt;numero &lt;br&gt;likert&lt;/font&gt;" style="text;html=1;align=center;verticalAlign=middle;resizable=0;points=[];autosize=1;strokeColor=none;fillColor=none;fontSize=11;" parent="1" vertex="1">
                    <mxGeometry x="-2015.42" y="-1619.24" width="60" height="40" as="geometry"/>
                </mxCell>
                <mxCell id="629" style="edgeStyle=elbowEdgeStyle;elbow=vertical;html=1;exitX=0.5;exitY=1;exitDx=0;exitDy=0;entryX=0.5;entryY=0;entryDx=0;entryDy=0;endArrow=none;endFill=0;rounded=0;jumpStyle=arc;strokeColor=#FF0000;strokeWidth=2;" parent="1" target="631" edge="1">
                    <mxGeometry relative="1" as="geometry">
                        <mxPoint x="-2070.5199999999995" y="-1610.43" as="sourcePoint"/>
                        <Array as="points">
                            <mxPoint x="-2019.9799999999998" y="-1530.65"/>
                        </Array>
                    </mxGeometry>
                </mxCell>
                <mxCell id="631" value="&lt;font color=&quot;#ff0000&quot;&gt;VIDEO&lt;/font&gt;" style="whiteSpace=wrap;html=1;strokeColor=#FF0000;" parent="1" vertex="1">
                    <mxGeometry x="-2010.5199999999998" y="-1489.91" width="80" height="40" as="geometry"/>
                </mxCell>
                <mxCell id="632" value="" style="shape=singleArrow;whiteSpace=wrap;html=1;arrowWidth=0.4;arrowSize=0.4;rotation=-90;fillColor=#000000;strokeColor=#FF0000;strokeWidth=2;" parent="1" vertex="1">
                    <mxGeometry x="-2110" y="-1589.92" width="78.91" height="39.32" as="geometry"/>
                </mxCell>
                <mxCell id="633" value="&lt;font color=&quot;#ff0000&quot;&gt;(e)&lt;/font&gt;" style="text;html=1;align=center;verticalAlign=middle;resizable=0;points=[];autosize=1;strokeColor=none;fillColor=none;" parent="1" vertex="1">
                    <mxGeometry x="-2050.52" y="-1560.39" width="40" height="30" as="geometry"/>
                </mxCell>
                <mxCell id="643" value="" style="endArrow=none;html=1;strokeColor=#000000;entryX=0;entryY=1;entryDx=0;entryDy=0;" parent="1" target="644" edge="1">
                    <mxGeometry width="50" height="50" relative="1" as="geometry">
                        <mxPoint x="-1952.7199999999998" y="-1490.39" as="sourcePoint"/>
                        <mxPoint x="-1930.9099999999999" y="-1510.0000000000002" as="targetPoint"/>
                    </mxGeometry>
                </mxCell>
                <mxCell id="644" value="" style="ellipse;whiteSpace=wrap;html=1;aspect=fixed;strokeColor=#000000;" parent="1" vertex="1">
                    <mxGeometry x="-1932.06" y="-1516.96" width="5.67" height="5.67" as="geometry"/>
                </mxCell>
                <mxCell id="645" value="&lt;font style=&quot;font-size: 11px;&quot;&gt;durata&lt;/font&gt;" style="text;html=1;align=center;verticalAlign=middle;resizable=0;points=[];autosize=1;strokeColor=none;fillColor=none;" parent="1" vertex="1">
                    <mxGeometry x="-1930.5199999999998" y="-1530.39" width="50" height="30" as="geometry"/>
                </mxCell>
                <mxCell id="648" value="" style="shape=flexArrow;endArrow=classic;html=1;strokeColor=#FF0000;fontColor=#FF0000;fillColor=#FF0000;" parent="1" edge="1">
                    <mxGeometry width="50" height="50" relative="1" as="geometry">
                        <mxPoint x="-2230" y="-1631" as="sourcePoint"/>
                        <mxPoint x="-2150" y="-1630.85" as="targetPoint"/>
                    </mxGeometry>
                </mxCell>
                <mxCell id="650" value="" style="shape=flexArrow;endArrow=classic;html=1;strokeColor=#FF0000;fontColor=#FF0000;fillColor=#FF0000;" parent="1" edge="1">
                    <mxGeometry width="50" height="50" relative="1" as="geometry">
                        <mxPoint x="-2120" y="-1470" as="sourcePoint"/>
                        <mxPoint x="-2040" y="-1470" as="targetPoint"/>
                    </mxGeometry>
                </mxCell>
                <mxCell id="651" value="" style="endArrow=classic;html=1;strokeColor=#FF0000;fontColor=#FF0000;fillColor=#FF0000;strokeWidth=4;" parent="1" edge="1">
                    <mxGeometry width="50" height="50" relative="1" as="geometry">
                        <mxPoint x="-1860" y="-1470" as="sourcePoint"/>
                        <mxPoint x="-1860" y="-1640" as="targetPoint"/>
                    </mxGeometry>
                </mxCell>
            </root>
        </mxGraphModel>
    </diagram>
</mxfile>